<?xml version="1.0" encoding="UTF-8"?>
<svg width="10px" height="12px" viewBox="0 0 10 12" version="1.1" xmlns="http://www.w3.org/2000/svg" xmlns:xlink="http://www.w3.org/1999/xlink">
    <!-- Generator: Sketch 51.3 (57544) - http://www.bohemiancoding.com/sketch -->
    <title>Group 5</title>
    <desc>Created with Sketch.</desc>
    <defs></defs>
    <g id="new-header" stroke="none" stroke-width="1" fill="none" fill-rule="evenodd">
        <g id="Mobile" transform="translate(-20.000000, -139.000000)" fill-rule="nonzero">
            <g id="Group-3" transform="translate(14.000000, 102.000000)">
                <g id="Edit" transform="translate(0.000000, 32.300000)">
                    <g id="Layer_1">
                        <g id="Group-5" transform="translate(5.000000, 5.000000)">
                            <rect id="Rectangle-2" fill="#D8D8D8" opacity="0" x="0" y="0" width="12" height="12"></rect>
                            <path d="M8.72135125,10.0793835 L1.92344864,10.0793835 C1.78405947,10.0793835 1.66611478,10.2306335 1.66611478,10.4093835 C1.66611478,10.5881335 1.78405947,10.7393835 1.92344864,10.7393835 L8.72135125,10.7393835 C8.86074042,10.7393835 8.9786851,10.5881335 8.9786851,10.4093835 C8.9786851,10.2306335 8.86074042,10.0793835 8.72135125,10.0793835 Z" id="Shape" fill="#2196F3"></path>
                            <path d="M1.68264348,6.84518652 L1.66611478,8.58549254 C1.66611478,8.67789817 1.69917217,8.78570473 1.78181565,8.84730849 C1.86445913,8.90891224 1.9636313,8.95511505 2.06280348,8.95511505 L3.93054609,8.93971412 C4.02971826,8.93971412 4.12889043,8.8935113 4.21153391,8.83190755 L10.6246678,2.85634354 C10.7734261,2.7177351 10.7734261,2.47132009 10.6246678,2.33271164 L8.77345391,0.607806567 C8.62469565,0.469198124 8.36023652,0.469198124 8.21147826,0.607806567 L6.92224,1.80907974 L1.79834435,6.58337058 C1.71570087,6.66037527 1.68264348,6.7527809 1.68264348,6.84518652 Z M9.78170435,2.59452759 L9.05444174,3.27216887 L7.76520348,2.07089569 L8.49246609,1.39325441 L9.78170435,2.59452759 Z M2.47602087,6.99919591 L7.20322783,2.59452759 L8.49246609,3.79580077 L3.76525913,8.20046908 L2.47602087,8.20046908 L2.47602087,6.99919591 Z" id="Shape" fill="#2196F3"></path>
                        </g>
                    </g>
                </g>
            </g>
        </g>
    </g>
</svg>