<?xml version="1.0" encoding="UTF-8"?>
<svg width="11px" height="11px" viewBox="0 0 11 11" version="1.1" xmlns="http://www.w3.org/2000/svg" xmlns:xlink="http://www.w3.org/1999/xlink">
    <!-- Generator: Sketch 51.3 (57544) - http://www.bohemiancoding.com/sketch -->
    <title>iconclock</title>
    <desc>Created with Sketch.</desc>
    <defs></defs>
    <g id="new-header" stroke="none" stroke-width="1" fill="none" fill-rule="evenodd">
        <g id="iconclock" transform="translate(-1.000000, -1.000000)" fill-rule="nonzero">
            <rect id="Rectangle-3" fill="#FFFFFF" opacity="0" x="0" y="0" width="12" height="12"></rect>
            <g id="time" opacity="0.613727679" transform="translate(0.500000, 0.500000)" fill="#000000">
                <path d="M5.5688,0.5 C2.77386368,0.5 0.5,2.77386368 0.5,5.5688 C0.5,8.36373632 2.77386368,10.6376 5.5688,10.6376 C8.36373632,10.6376 10.6376,8.36373632 10.6376,5.5688 C10.6376,2.77386368 8.36373632,0.5 5.5688,0.5 Z M5.5688,10.29968 C2.96022656,10.29968 0.83792,8.17737344 0.83792,5.5688 C0.83792,2.96022656 2.96022656,0.83792 5.5688,0.83792 C8.17737344,0.83792 10.29968,2.96022656 10.29968,5.5688 C10.29968,8.17737344 8.17737344,10.29968 5.5688,10.29968 Z" id="Shape"></path>
                <path d="M5.8928,2.2672 C5.795648,2.2672 5.7168,2.34345132 5.7168,2.43778462 L5.7168,6.36123077 L3.0768,6.36123077 C2.979648,6.36123077 2.9008,6.43748209 2.9008,6.53181538 C2.9008,6.62614868 2.979648,6.7024 3.0768,6.7024 L5.8928,6.7024 C5.989952,6.7024 6.0688,6.62614868 6.0688,6.53181538 L6.0688,2.43778462 C6.0688,2.34345132 5.989952,2.2672 5.8928,2.2672 Z" id="Shape"></path>
            </g>
        </g>
    </g>
</svg>